<svg width="28" height="28" viewBox="0 0 28 28" fill="none" xmlns="http://www.w3.org/2000/svg">
<path d="M22.1667 8.16671H18.6667V7.00004C18.6667 5.76236 18.1751 4.57538 17.2999 3.70021C16.4247 2.82504 15.2378 2.33337 14.0001 2.33337C12.7624 2.33337 11.5754 2.82504 10.7002 3.70021C9.82508 4.57538 9.33341 5.76236 9.33341 7.00004V8.16671H5.83341C5.524 8.16671 5.22725 8.28962 5.00846 8.50842C4.78966 8.72721 4.66675 9.02396 4.66675 9.33337V22.1667C4.66675 23.095 5.0355 23.9852 5.69187 24.6416C6.34825 25.298 7.23849 25.6667 8.16675 25.6667H19.8334C20.7617 25.6667 21.6519 25.298 22.3083 24.6416C22.9647 23.9852 23.3334 23.095 23.3334 22.1667V9.33337C23.3334 9.02396 23.2105 8.72721 22.9917 8.50842C22.7729 8.28962 22.4762 8.16671 22.1667 8.16671ZM11.6667 7.00004C11.6667 6.3812 11.9126 5.78771 12.3502 5.35013C12.7878 4.91254 13.3812 4.66671 14.0001 4.66671C14.6189 4.66671 15.2124 4.91254 15.65 5.35013C16.0876 5.78771 16.3334 6.3812 16.3334 7.00004V8.16671H11.6667V7.00004Z" fill="#081C00"/>
<path d="M19.5662 11.9367C19.489 11.8511 19.3972 11.7832 19.296 11.7368C19.1949 11.6905 19.0864 11.6666 18.9768 11.6666C18.8672 11.6666 18.7587 11.6905 18.6575 11.7368C18.5564 11.7832 18.4645 11.8511 18.3874 11.9367L12.2028 18.7484L9.60449 15.8813C9.52436 15.7962 9.42977 15.7292 9.32613 15.6843C9.22248 15.6394 9.1118 15.6173 9.00041 15.6195C8.88902 15.6216 8.7791 15.6478 8.67693 15.6967C8.57476 15.7455 8.48233 15.816 8.40493 15.9041C8.32753 15.9923 8.26667 16.0963 8.22583 16.2103C8.18498 16.3243 8.16495 16.4461 8.16687 16.5686C8.1688 16.6911 8.19265 16.812 8.23706 16.9244C8.28146 17.0368 8.34556 17.1384 8.42569 17.2236L11.6134 20.7299C11.6906 20.8154 11.7824 20.8834 11.8836 20.9297C11.9847 20.9761 12.0932 21 12.2028 21C12.3124 21 12.4209 20.9761 12.5221 20.9297C12.6232 20.8834 12.7151 20.8154 12.7922 20.7299L19.5662 13.279C19.6504 13.1935 19.7177 13.0897 19.7637 12.9742C19.8097 12.8587 19.8334 12.7339 19.8334 12.6078C19.8334 12.4817 19.8097 12.357 19.7637 12.2415C19.7177 12.126 19.6504 12.0222 19.5662 11.9367Z" fill="white"/>
</svg>
